<svg width="102" height="93" viewBox="0 0 102 93" fill="none" xmlns="http://www.w3.org/2000/svg">
<circle cx="50.3627" cy="46.1042" r="43.2703" stroke="#E3E3E3" stroke-width="0.159375"/>
<ellipse cx="18.1689" cy="17.5761" rx="4.78125" ry="4.62187" fill="#4C4AEF"/>
<circle cx="74.7471" cy="81.6448" r="2.39062" fill="#FF7422"/>
<g clip-path="url(#clip0_412_414)">
<path d="M101.749 52.5043V58.2881C101.749 59.3398 100.688 59.7873 100.688 59.7873C100.688 59.7873 42.6308 86.9421 38.1313 88.8111C34.0206 90.5189 30.6556 88.8111 30.6556 88.8111C30.6556 88.8111 2.58959 76.3775 0.980839 75.5846C0.775 75.4783 0.601421 75.3272 0.475659 75.145C0.349897 74.9628 0.275884 74.7551 0.260254 74.5405V68.5238L20.5205 65.3275L47.514 53.1877L71.7995 44.6947C71.7995 44.6947 83.5987 50.0614 92.2441 54.0081L101.749 52.5043Z" fill="#4C4AEF"/>
<path d="M34.3519 89.7991C33.0271 89.8124 31.7177 89.5401 30.5311 89.0046C29.3983 88.5023 2.45502 76.571 0.851291 75.7857C0.604567 75.6594 0.397086 75.4785 0.248217 75.2597C0.0993488 75.0409 0.0139551 74.7914 0 74.5345V68.3322L20.4312 65.107L47.3996 52.9778H47.4113L71.799 44.4544L71.8995 44.5C72.0169 44.5533 83.7289 49.8805 92.267 53.7845L101.987 52.2488V58.2974C101.987 59.4815 100.829 59.9823 100.78 60.0036C100.209 60.2715 42.6739 87.1781 38.2213 89.0274C37.0078 89.5349 35.6879 89.7981 34.3519 89.7991ZM0.501058 68.7158V74.5345C0.51751 74.7076 0.579535 74.8746 0.681903 75.0213C0.78427 75.1681 0.923982 75.2903 1.08926 75.3778C2.68293 76.1586 30.4825 88.4673 30.7624 88.5937C30.8076 88.6165 34.0838 90.2283 38.0236 88.5937C42.4661 86.7474 99.9891 59.8453 100.571 59.5744C100.616 59.5546 101.496 59.1665 101.496 58.2776V52.7693L92.1916 54.2381L92.1179 54.2046C83.9937 50.4938 72.9402 45.465 71.7772 44.9369L47.6057 53.3903L20.587 65.5453L0.501058 68.7158Z" fill="black"/>
<path d="M0.97019 67.8121C0.97019 67.8121 -0.646942 68.4863 0.97019 69.2808C2.58732 70.0753 30.6534 82.5028 30.6534 82.5028C30.6534 82.5028 34.02 84.2106 38.129 82.5028C42.6302 80.6322 100.688 53.4774 100.688 53.4774C100.688 53.4774 102.786 52.6038 101.08 51.7697C99.3739 50.9356 71.7905 38.3894 71.7905 38.3894L47.5067 46.8824L0.97019 67.8121Z" fill="#FF7422"/>
<path d="M34.3784 83.3318C33.0754 83.3455 31.7866 83.085 30.6129 82.5708C30.3364 82.449 2.53013 70.1357 0.931434 69.3503C0.413617 69.0961 0.157222 68.8222 0.167277 68.533C0.184035 68.0672 0.891208 67.7628 0.934779 67.7461L47.4697 46.818L71.7953 38.3098L71.8272 38.3235C72.1037 38.4498 99.4341 50.8818 101.12 51.7053C101.603 51.9412 101.842 52.2091 101.832 52.5013C101.81 53.0888 100.766 53.5317 100.721 53.55C100.145 53.8194 42.6149 80.7245 38.164 82.5738C36.9775 83.0725 35.6858 83.3311 34.3784 83.3318ZM71.7853 38.4726L47.5367 46.9534L1.00517 67.88C1.00517 67.88 0.348262 68.1601 0.334855 68.5345C0.334855 68.7613 0.554383 68.9911 1.00517 69.2133C2.60219 69.9972 30.4051 82.3029 30.685 82.4338C30.7219 82.452 34.0684 84.108 38.0886 82.4338C42.5361 80.586 100.062 53.6824 100.644 53.4115C100.657 53.4115 101.649 52.9899 101.66 52.4982C101.66 52.2684 101.457 52.0416 101.036 51.8422C99.3821 51.0264 72.8863 38.9734 71.7853 38.4726Z" fill="black"/>
<path d="M0.97019 67.8121C0.97019 67.8121 -0.646942 68.4863 0.97019 69.2808C2.58732 70.0753 30.6534 82.5028 30.6534 82.5028C30.6534 82.5028 34.02 84.2106 38.129 82.5028C42.6302 80.6322 100.688 53.4774 100.688 53.4774C100.688 53.4774 102.786 52.6038 101.08 51.7697C99.3739 50.9356 71.7905 38.3894 71.7905 38.3894L47.5067 46.8824L0.97019 67.8121Z" fill="url(#paint0_linear_412_414)"/>
<path d="M34.3518 83.495C33.0271 83.5087 31.7176 83.2369 30.531 82.7019C29.3982 82.1997 2.45488 70.2684 0.851149 69.4815C0.274679 69.1984 -0.0118727 68.8727 -0.000142225 68.5256C0.0199672 67.9792 0.760658 67.6474 0.862881 67.6048L47.3994 46.6813H47.4112L71.7989 38.1578L71.8977 38.2035C72.1742 38.3283 99.5063 50.7619 101.194 51.5868C101.737 51.8532 102.007 52.1667 101.993 52.5214C101.97 53.1911 100.907 53.6522 100.787 53.704C100.217 53.9703 42.6838 80.877 38.2295 82.7278C37.0131 83.2349 35.6902 83.4966 34.3518 83.495ZM1.07571 68.0188C0.891373 68.0964 0.510972 68.3232 0.502593 68.5409C0.502593 68.6931 0.70703 68.8909 1.09079 69.0797C2.68446 69.862 30.4824 82.1692 30.7639 82.2971C30.8092 82.3199 34.087 83.9302 38.0251 82.2971C42.4693 80.4509 99.9906 53.5488 100.572 53.2778C100.875 53.15 101.485 52.7968 101.497 52.4924C101.497 52.2839 101.209 52.0952 100.961 51.9734C99.3303 51.1759 73.597 39.4698 71.7771 38.6418L47.6072 47.0953L1.07571 68.0188Z" fill="black"/>
<path d="M43.3438 32.6113C41.5172 39.6599 42.1708 45.6552 48.5622 47.1955C53.236 48.3233 58.565 43.3036 60.3916 36.2535C62.2182 29.2034 59.9123 22.5445 55.1732 21.6693C50.8027 20.8611 45.1688 25.5627 43.3438 32.6113Z" fill="#FF7422"/>
<path d="M49.8984 47.5825C49.4254 47.5832 48.9544 47.5274 48.4974 47.4167C45.4106 46.6739 43.4366 44.8596 42.6322 42.0271C41.9418 39.6116 42.101 36.426 43.1031 32.5585C43.9778 29.181 45.7642 26.1522 48.1304 24.035C50.4229 21.9818 53.0086 21.0381 55.2257 21.4475C56.821 21.7413 58.217 22.6835 59.2627 24.1674C61.3021 27.0593 61.8283 31.7122 60.6385 36.3088C59.4487 40.9054 56.697 44.8459 53.4561 46.61C52.2713 47.2538 51.0631 47.5825 49.8984 47.5825ZM54.2152 21.8128C50.3475 21.8128 45.3335 25.9482 43.5891 32.6635C41.4692 40.8444 43.1651 45.6587 48.6265 46.9707C50.0676 47.3192 51.6429 47.0559 53.1963 46.2097C56.325 44.5065 58.9878 40.6679 60.1475 36.1946C61.3071 31.7214 60.8061 27.1963 58.8387 24.4049C57.8667 23.0259 56.5814 22.1553 55.1235 21.8859C54.8242 21.8337 54.5199 21.8092 54.2152 21.8128Z" fill="black"/>
<path d="M62.0001 36.8922C63.794 29.9673 61.6382 23.5821 57.185 22.6304C52.7318 21.6788 47.6675 26.5211 45.8736 33.446C44.0797 40.3709 46.2355 46.7561 50.6887 47.7078C55.1419 48.6594 60.2062 43.8171 62.0001 36.8922Z" fill="url(#paint1_linear_412_414)"/>
<path d="M51.8326 48.0506C51.4275 48.0505 51.0238 48.0081 50.6294 47.9243C46.0478 46.9456 43.8039 40.4237 45.6272 33.3873C47.4488 26.3508 52.6655 21.424 57.2404 22.4012C59.4842 22.8806 61.2371 24.6736 62.1739 27.4482C63.0956 30.1803 63.1207 33.5501 62.2426 36.9382C61.3645 40.3263 59.6887 43.3308 57.5219 45.4053C55.7087 47.1374 53.7296 48.0506 51.8326 48.0506ZM46.1165 33.4923C44.3569 40.2837 46.4332 46.559 50.745 47.4799C52.8079 47.9197 55.0853 47.072 57.1566 45.0903C59.263 43.0766 60.8953 40.1436 61.7533 36.8332C62.6113 33.5227 62.5912 30.2382 61.6929 27.5822C60.8098 24.9688 59.1793 23.287 57.1248 22.8456C52.8146 21.9324 47.8744 26.7009 46.1165 33.4999V33.4923Z" fill="black"/>
<path d="M60.8038 36.6372C62.313 30.8112 60.6984 25.4818 57.1975 24.7337C53.6965 23.9855 49.635 28.1019 48.1258 33.9279C46.6165 39.7539 48.2312 45.0833 51.7321 45.8314C55.233 46.5796 59.2945 42.4632 60.8038 36.6372Z" fill="url(#paint2_linear_412_414)"/>
<path d="M52.5746 46.1405C52.271 46.141 51.9685 46.1094 51.673 46.0462C49.8866 45.6641 48.5142 44.1695 47.807 41.8377C47.1149 39.5546 47.1367 36.7221 47.8807 33.8683C49.4191 27.9323 53.6203 23.7254 57.2534 24.5031C60.8865 25.2809 62.5857 30.7435 61.0473 36.6795C60.3083 39.5348 58.9409 42.0782 57.193 43.8422C55.7183 45.3475 54.1029 46.1405 52.5746 46.1405ZM56.3518 24.8654C53.1862 24.8654 49.7308 28.7177 48.37 33.9718C47.6494 36.7541 47.6226 39.5044 48.2929 41.7159C48.9482 43.8803 50.1899 45.2608 51.7886 45.6017C53.3873 45.9426 55.1771 45.2106 56.826 43.5394C58.5119 41.8301 59.8425 39.3583 60.558 36.576C62.0327 30.882 60.4994 25.666 57.1394 24.9476C56.8813 24.8922 56.617 24.8646 56.3518 24.8654Z" fill="black"/>
<path d="M65.33 13.6526C63.3375 20.6723 63.8704 26.6874 70.2853 28.3647C74.9775 29.5914 80.459 24.6783 82.4515 17.6586C84.444 10.639 82.2571 3.92371 77.4945 2.94656C73.0989 2.04551 67.3158 6.63294 65.33 13.6526Z" fill="#FF7422"/>
<path d="M71.7521 28.7801C71.2306 28.7807 70.7116 28.7146 70.2103 28.5838C67.1135 27.7756 65.1612 25.9187 64.4054 23.0649C63.7619 20.6296 63.9898 17.447 65.0757 13.5963C66.0309 10.2325 67.8961 7.23715 70.331 5.16261C72.6855 3.15656 75.3131 2.27073 77.5369 2.72734C79.1506 3.05762 80.5449 4.03935 81.5722 5.56596C83.5496 8.50502 83.9736 13.1625 82.6815 17.7195C81.3895 22.2765 78.544 26.1562 75.2544 27.8639C74.195 28.4416 72.9875 28.7574 71.7521 28.7801ZM65.3305 13.6526L65.5734 13.7104C63.2625 21.8549 64.8713 26.7117 70.3545 28.1455C71.8141 28.5275 73.4262 28.2977 75.0182 27.4651C78.2022 25.8167 80.9504 22.0375 82.2073 17.6023C83.4641 13.167 83.0653 8.63897 81.1566 5.80036C80.203 4.38181 78.9177 3.47162 77.4397 3.16874C73.4714 2.35597 67.6229 6.48375 65.5734 13.7104L65.3305 13.6526Z" fill="black"/>
<path d="M84.0254 18.4519C85.9987 11.497 83.9728 5.01037 79.5006 3.96367C75.0284 2.91697 69.8034 7.70652 67.8301 14.6614C65.8569 21.6163 67.8828 28.1029 72.355 29.1496C76.8272 30.1963 82.0522 25.4068 84.0254 18.4519Z" fill="url(#paint3_linear_412_414)"/>
<path d="M73.6135 29.5071C73.1664 29.5076 72.7209 29.4565 72.288 29.3549C70.0341 28.8283 68.3097 26.9866 67.4282 24.1678C66.5618 21.3931 66.6155 17.9914 67.5807 14.5896C68.546 11.1878 70.3089 8.18482 72.5444 6.13615C74.8134 4.05552 77.3053 3.20014 79.5575 3.72829C81.8098 4.25644 83.5359 6.09658 84.4173 8.91541C85.2854 11.6901 85.2301 15.0919 84.2648 18.4936C83.2996 21.8954 81.5383 24.8984 79.3028 26.9471C77.4695 28.6259 75.4938 29.5071 73.6135 29.5071ZM78.2337 4.0327C76.4892 4.0327 74.6358 4.86829 72.9013 6.4573C70.7228 8.44966 69.0118 11.3781 68.0684 14.7037C67.1249 18.0294 67.0629 21.3459 67.9125 24.0445C68.742 26.699 70.3407 28.428 72.4137 28.9151C74.4866 29.4021 76.8059 28.5878 78.9492 26.632C81.1278 24.6396 82.8387 21.7112 83.7822 18.3856C84.7257 15.0599 84.7877 11.7434 83.9381 9.04478C83.1002 6.39033 81.5098 4.66129 79.4369 4.17424C79.044 4.08113 78.6397 4.03358 78.2337 4.0327Z" fill="black"/>
<path d="M82.8264 18.172C84.4865 12.3209 82.982 6.91052 79.4661 6.08763C75.9502 5.26474 71.7542 9.34092 70.0942 15.192C68.4341 21.0431 69.9386 26.4535 73.4545 27.2763C76.9704 28.0992 81.1664 24.0231 82.8264 18.172Z" fill="url(#paint4_linear_412_414)"/>
<path d="M74.3582 27.5923C74.0309 27.5927 73.7048 27.5553 73.3879 27.4812C69.743 26.6288 68.1544 21.0886 69.8469 15.1191C71.5378 9.15575 75.8798 4.99601 79.5229 5.84987C83.1661 6.70374 84.7564 12.2424 83.0638 18.2119C81.5204 23.6532 77.7701 27.5923 74.3582 27.5923ZM70.3363 15.2333C68.7141 20.9531 70.1402 26.2498 73.5203 27.0398C73.8044 27.1059 74.0967 27.1392 74.39 27.1387C77.574 27.1387 81.0931 23.3336 82.5863 18.0993C84.2084 12.3779 82.7823 7.08273 79.4023 6.29279C76.0222 5.50285 71.9601 9.51343 70.3379 15.2333H70.3363Z" fill="black"/>
<path d="M78.3664 52.0729C78.3916 52.9862 77.1263 53.595 77.1263 53.595C77.1263 53.595 70.1333 57.2281 63.3849 60.1398C56.6365 63.0514 51.6544 62.3437 49.4172 60.4974C48.6279 59.843 48.3665 59.295 48.3564 58.8597V56.7745L52.5778 55.8506L56.107 54.0059C56.107 54.0059 65.9421 49.8538 69.0239 48.5464C72.0789 47.2526 74.2942 48.7945 77.0543 50.4946C77.0811 50.5098 78.3262 49.6712 78.3262 49.7016C78.3681 51.2389 78.3564 51.6285 78.3664 52.0729Z" fill="url(#paint5_linear_412_414)"/>
<path d="M54.9923 62.329C52.3362 62.329 50.3806 61.6106 49.241 60.6685C48.4953 60.0505 48.1116 59.4509 48.0981 58.8664V56.597L52.477 55.6381L55.9961 53.801C56.095 53.7584 65.8665 49.6337 68.9131 48.3414C71.9596 47.0492 74.1817 48.4449 76.7759 50.0507L77.0557 50.2242C77.1864 50.1436 77.3909 50.005 77.5584 49.897C78.2757 49.4327 78.2757 49.4312 78.4248 49.4982L78.5589 49.5591V49.6961C78.5941 50.7767 78.5974 51.2851 78.6008 51.6549C78.6008 51.8071 78.6008 51.935 78.6008 52.0659C78.6293 53.1146 77.2836 53.766 77.225 53.7934C77.1663 53.8208 70.1548 57.46 63.4684 60.3473C60.1738 61.7781 57.315 62.329 54.9923 62.329ZM48.6009 56.9562V58.8572C48.6109 59.3002 48.936 59.7963 49.5795 60.326C51.6005 62.0003 56.4 62.8998 63.2707 59.9303C69.9386 57.0506 76.9317 53.4236 77.0004 53.3855C77.0205 53.3749 78.1366 52.833 78.1148 52.0704C78.1148 51.9365 78.1148 51.8087 78.1148 51.6534C78.1148 51.3353 78.1148 50.9152 78.0863 50.1177L77.8634 50.2699C77.0758 50.7798 77.0758 50.7798 76.9183 50.6915L76.496 50.4297C73.927 48.8391 71.8993 47.5835 69.1225 48.7554C66.1195 50.0294 56.5793 54.0567 56.219 54.2104L52.668 56.0673L48.6009 56.9562Z" fill="black"/>
<g opacity="0.42">
<path d="M56.0996 51.9231L49.1485 55.5562C49.1485 55.5562 47.1811 56.5684 49.4099 58.4146C51.6387 60.2609 56.6158 60.9762 63.3776 58.0569C70.1393 55.1376 77.119 51.5121 77.119 51.5121C77.119 51.5121 79.9142 50.1819 77.119 48.468C74.3238 46.7542 72.0916 45.1667 69.0099 46.4726C65.9281 47.7785 56.0996 51.9231 56.0996 51.9231Z" fill="#4C4AEF"/>
<path d="M54.9887 60.0946C52.3845 60.0946 50.4641 59.393 49.3547 58.4706C48.5637 57.8161 48.2001 57.1875 48.2721 56.6015C48.3609 55.8816 49.0765 55.5057 49.11 55.4889L56.0679 51.8528C56.0679 51.8528 65.9031 47.7006 68.9848 46.3947C71.9258 45.1482 74.1295 46.5119 76.6817 48.0903L77.1845 48.3947C78.0676 48.9365 78.4966 49.5027 78.4614 50.0689C78.4061 50.97 77.2263 51.5408 77.1761 51.5651C77.1258 51.5895 70.1059 55.2317 63.4346 58.1175C60.1216 59.5482 57.2862 60.0946 54.9887 60.0946ZM56.1383 51.9897L49.1905 55.6213C49.1905 55.6213 48.5201 55.9775 48.438 56.6198C48.3727 57.1541 48.7196 57.7385 49.467 58.358C51.5265 60.0627 56.3963 60.9896 63.3425 57.9881C70.0154 55.1039 77.0135 51.4753 77.0839 51.4433C77.0973 51.4433 78.2318 50.8878 78.2821 50.0735C78.3139 49.5591 77.9084 49.0385 77.0789 48.5271L76.5761 48.2227C73.9636 46.6047 71.9007 45.3308 69.0468 46.5393C66.0003 47.8254 56.3427 51.903 56.1383 51.9897Z" fill="black"/>
</g>
<path d="M56.1001 51.9231L49.1489 55.5562C49.1489 55.5562 47.1816 56.5684 49.4104 58.4146C51.6392 60.2609 56.6163 60.9762 63.378 58.0569C70.1398 55.1376 77.1195 51.5121 77.1195 51.5121C77.1195 51.5121 79.9147 50.1819 77.1195 48.468C74.3243 46.7542 72.0921 45.1667 69.0104 46.4726C65.9286 47.7785 56.1001 51.9231 56.1001 51.9231Z" fill="url(#paint6_linear_412_414)"/>
<path d="M54.9926 60.2445C52.3381 60.2445 50.3808 59.5276 49.2412 58.5839C48.4034 57.8945 48.028 57.2217 48.1051 56.5855C48.2039 55.788 48.9915 55.3679 49.0251 55.3572L55.9947 51.7165C55.9947 51.7165 65.8298 47.5643 68.9116 46.2569C71.9398 44.9738 74.1786 46.3604 76.7727 47.9646L77.2755 48.269C78.2105 48.8429 78.6647 49.4547 78.6261 50.0849C78.5641 51.0712 77.3039 51.6815 77.2503 51.7074C77.1967 51.7332 70.1802 55.374 63.4955 58.2628C60.1741 59.6951 57.3169 60.2445 54.9926 60.2445ZM56.2159 52.1259L49.2748 55.7545C49.2748 55.7545 48.6715 56.0756 48.6044 56.6403C48.5475 57.1228 48.8759 57.6631 49.5798 58.246C51.6008 59.9203 56.3985 60.8198 63.2709 57.8518C69.9389 54.9706 76.9319 51.3436 77.0006 51.307C77.0191 51.2979 78.0715 50.785 78.115 50.0574C78.1435 49.6008 77.7631 49.1244 76.9856 48.6465C76.818 48.5445 76.6504 48.4426 76.4828 48.3421C73.9138 46.7531 71.8861 45.4974 69.1177 46.6679C66.098 47.954 56.5661 51.9783 56.2159 52.1259Z" fill="black"/>
<path d="M56.2313 53.2628L51.9363 55.5566C51.9363 55.5566 50.165 56.2476 52.1659 57.8077C54.1667 59.3678 59.1086 58.593 63.3584 56.7179C67.6082 54.8427 75.2565 51.1426 75.2565 51.1426C75.2565 51.1426 77.7802 50.1959 75.4861 48.8854C73.1919 47.5749 72.9288 47.546 72.9288 47.546L56.2313 53.2628Z" fill="black"/>
<path d="M72.8377 46.5836C72.1271 49.3232 70.8518 51.7448 69.2833 53.5773L63.9208 56.0202L61.5864 57.0857C61.511 57.072 61.4356 57.0552 61.3602 57.0369L61.2345 57.005C55.1196 55.4601 54.4778 49.7418 56.2072 43.0341C57.9567 36.2824 63.4248 31.7938 67.6863 32.5838C68.5441 32.7463 69.3447 33.0981 70.0173 33.6081C71.5925 34.7801 72.6801 36.7846 73.1544 39.2184C73.5884 41.4192 73.513 43.9748 72.8377 46.5836Z" fill="#FF7422"/>
<path d="M61.6204 57.3223L61.5349 57.3071C61.4545 57.2918 61.3673 57.2736 61.2936 57.2538L61.2551 57.2446C61.2216 57.2376 61.1886 57.229 61.1562 57.2188C55.6261 55.8246 53.8833 51.0317 55.9696 42.9785C56.8075 39.7411 58.5369 36.8417 60.8294 34.8143C63.0549 32.8509 65.5736 31.9559 67.737 32.3577C68.6344 32.5253 69.4724 32.8913 70.1769 33.4231C71.7639 34.6042 72.9101 36.6453 73.4012 39.1688C73.8519 41.4884 73.7363 44.0683 73.076 46.6269C72.3772 49.3239 71.1321 51.7729 69.4748 53.7089L69.4396 53.7485L61.6204 57.3223ZM66.7382 32.723C62.9761 32.723 58.1214 36.6651 56.459 43.0836C54.448 50.846 56.0752 55.4624 61.3003 56.782L61.3841 56.8033L61.426 56.8139L61.5517 56.8428L69.1195 53.3969C70.7149 51.5187 71.9147 49.1459 72.5934 46.531C73.2403 44.0303 73.3509 41.5082 72.9135 39.2556C72.4426 36.8386 71.3601 34.8934 69.8653 33.7763C69.2245 33.2892 68.4612 32.9535 67.6432 32.7991C67.3451 32.746 67.0419 32.7205 66.7382 32.723Z" fill="black"/>
<path d="M74.3458 47.4181C73.9277 49.0561 73.2882 50.6409 72.4421 52.1365L70.3273 53.0999L69.2833 53.5748L63.9207 56.0177L61.5864 57.0831L61.4389 57.1501C61.3702 57.1029 61.3015 57.0527 61.2345 56.9979C58.3521 54.8153 57.1841 49.6129 58.6236 44.0605C60.3714 37.3087 65.31 32.5858 69.6519 33.5143C69.7776 33.5417 69.9033 33.5721 70.0256 33.6086C74.1129 34.8095 76.0451 40.8612 74.3458 47.4181Z" fill="url(#paint7_linear_412_414)"/>
<path d="M61.4093 57.4174L61.2853 57.3306C61.2132 57.2819 61.1429 57.2302 61.0725 57.1784C58.0192 54.8664 56.9367 49.5682 58.3778 44.0051C59.2325 40.7008 60.868 37.7647 62.9812 35.748C65.1279 33.6933 67.5176 32.8212 69.7078 33.2899C69.8603 33.3219 69.986 33.3539 70.1016 33.3889C74.343 34.6309 76.3137 40.818 74.591 47.4708C74.1687 49.1285 73.522 50.7322 72.6656 52.2455L72.627 52.3109L61.4093 57.4174ZM68.5348 33.6217C66.8221 33.6217 65.0156 34.4634 63.3398 36.057C61.287 38.0204 59.6967 40.8789 58.8621 44.1056C57.4846 49.4236 58.527 54.6533 61.3892 56.8222L61.4613 56.877L72.2449 51.9669C73.0627 50.5063 73.6817 48.9607 74.0883 47.3643C75.7524 40.9413 73.9207 34.9916 69.934 33.8181C69.8285 33.7876 69.7162 33.7587 69.5788 33.7283C69.2363 33.6572 68.8861 33.6215 68.5348 33.6217Z" fill="black"/>
<path d="M73.1812 47.1682C72.578 49.4969 71.5574 51.5456 70.3324 53.1042L69.2884 53.5791L63.9259 56.0219C60.8039 54.9733 59.4164 49.9749 60.8274 44.529C62.2987 38.8472 66.2586 34.8336 69.6722 35.5626C71.2993 35.9096 72.5076 37.2719 73.1678 39.2155C73.8868 41.354 73.9521 44.1941 73.1812 47.1682Z" fill="url(#paint8_linear_412_414)"/>
<path d="M63.9341 56.2705L63.8319 56.2355C60.5792 55.1442 59.1497 49.9784 60.5758 44.4762C62.0757 38.6818 66.1763 34.5829 69.7223 35.3439C71.3796 35.6971 72.6867 37.0502 73.409 39.1491C74.1832 41.4321 74.1916 44.2981 73.4341 47.2159C72.8409 49.499 71.8405 51.5842 70.5401 53.231L70.5032 53.2767L69.4039 53.7774L63.9341 56.2705ZM68.8492 35.7032C65.7641 35.7032 62.3991 39.458 61.0735 44.5797C59.7195 49.8018 60.968 54.683 63.9224 55.7713L70.1747 52.9235C71.4198 51.333 72.3801 49.3255 72.9532 47.1154C73.6805 44.3103 73.6738 41.4549 72.9364 39.283C72.2778 37.3409 71.0931 36.0989 69.6234 35.7823C69.3697 35.728 69.1098 35.7015 68.8492 35.7032Z" fill="black"/>
<path d="M73.1382 68.5542V70.4308L80.3189 67.1021V65.2255L73.1382 68.5542Z" fill="url(#paint9_linear_412_414)"/>
<path d="M72.8867 70.8044V68.4163L80.5702 64.8531V67.2428L72.8867 70.8044ZM73.3895 68.6963V70.0661L80.0675 66.9703V65.6005L73.3895 68.6963Z" fill="black"/>
<path d="M82.0229 64.5112V66.3878L89.2037 62.8734V60.9983L82.0229 64.5112Z" fill="url(#paint10_linear_412_414)"/>
<path d="M81.772 66.7724V64.3767L89.4554 60.6173V63.0115L81.772 66.7724ZM82.2747 64.6492V66.0114L88.9527 62.7436V61.3859L82.2747 64.6492Z" fill="black"/>
<path d="M4.58831 74.7605C4.8965 74.7605 5.14635 74.4205 5.14635 74.001C5.14635 73.5816 4.8965 73.2415 4.58831 73.2415C4.28011 73.2415 4.03027 73.5816 4.03027 74.001C4.03027 74.4205 4.28011 74.7605 4.58831 74.7605Z" fill="url(#paint11_linear_412_414)"/>
<path d="M4.58839 74.8393C4.2348 74.8393 3.94824 74.4648 3.94824 74.0037C3.94824 73.5425 4.2348 73.1681 4.58839 73.1681C4.94198 73.1681 5.23021 73.5425 5.23021 74.0037C5.23021 74.4648 4.94198 74.8393 4.58839 74.8393ZM4.58839 73.3172C4.332 73.3172 4.11582 73.6308 4.11582 74.0006C4.11582 74.3705 4.332 74.684 4.58839 74.684C4.84479 74.684 5.06263 74.3705 5.06263 74.0006C5.06263 73.6308 4.84479 73.3172 4.58839 73.3172Z" fill="black"/>
<path d="M6.05657 75.4516C6.36477 75.4516 6.61461 75.1115 6.61461 74.6921C6.61461 74.2726 6.36477 73.9326 6.05657 73.9326C5.74838 73.9326 5.49854 74.2726 5.49854 74.6921C5.49854 75.1115 5.74838 75.4516 6.05657 75.4516Z" fill="url(#paint12_linear_412_414)"/>
<path d="M6.05637 75.529C5.70278 75.529 5.41455 75.1531 5.41455 74.6934C5.41455 74.2338 5.70278 73.8578 6.05637 73.8578C6.40996 73.8578 6.69652 74.2323 6.69652 74.6934C6.69652 75.1546 6.40996 75.529 6.05637 75.529ZM6.05637 74.007C5.79997 74.007 5.58213 74.3114 5.58213 74.6904C5.58213 75.0694 5.79997 75.3738 6.05637 75.3738C6.31276 75.3738 6.52894 75.0603 6.52894 74.6904C6.52894 74.3205 6.31276 74.0101 6.05637 74.0101V74.007Z" fill="black"/>
<path d="M7.5556 76.2036C7.86379 76.2036 8.11363 75.8636 8.11363 75.4441C8.11363 75.0247 7.86379 74.6846 7.5556 74.6846C7.2474 74.6846 6.99756 75.0247 6.99756 75.4441C6.99756 75.8636 7.2474 76.2036 7.5556 76.2036Z" fill="url(#paint13_linear_412_414)"/>
<path d="M7.55589 76.2811C7.2023 76.2811 6.91406 75.9052 6.91406 75.4455C6.91406 74.9859 7.2023 74.6099 7.55589 74.6099C7.90948 74.6099 8.19772 74.9843 8.19772 75.4455C8.19772 75.9067 7.90948 76.2811 7.55589 76.2811ZM7.55589 74.7591C7.2995 74.7591 7.08164 75.0711 7.08164 75.4425C7.08164 75.8139 7.2995 76.1259 7.55589 76.1259C7.81229 76.1259 8.03014 75.8123 8.03014 75.4425C8.03014 75.0726 7.81229 74.7621 7.55589 74.7621V74.7591Z" fill="black"/>
<path d="M9.15472 76.9619C9.46291 76.9619 9.71275 76.6218 9.71275 76.2024C9.71275 75.7829 9.46291 75.4429 9.15472 75.4429C8.84652 75.4429 8.59668 75.7829 8.59668 76.2024C8.59668 76.6218 8.84652 76.9619 9.15472 76.9619Z" fill="url(#paint14_linear_412_414)"/>
<path d="M9.15452 77.0406C8.80093 77.0406 8.5127 76.6647 8.5127 76.205C8.5127 75.7454 8.80093 75.3694 9.15452 75.3694C9.50811 75.3694 9.79466 75.7439 9.79466 76.205C9.79466 76.6662 9.50811 77.0406 9.15452 77.0406ZM9.15452 75.5186C8.89813 75.5186 8.68027 75.8306 8.68027 76.202C8.68027 76.5734 8.89813 76.8854 9.15452 76.8854C9.41092 76.8854 9.62709 76.5719 9.62709 76.202C9.62709 75.8321 9.41092 75.5217 9.15452 75.5217V75.5186Z" fill="black"/>
<path d="M21.663 82.3383C21.9712 82.3383 22.2211 81.9983 22.2211 81.5788C22.2211 81.1593 21.9712 80.8193 21.663 80.8193C21.3548 80.8193 21.105 81.1593 21.105 81.5788C21.105 81.9983 21.3548 82.3383 21.663 82.3383Z" fill="url(#paint15_linear_412_414)"/>
<path d="M21.6623 82.4145C21.302 82.4145 21.0205 82.0477 21.0205 81.5789C21.0205 81.1102 21.302 80.7433 21.6623 80.7433C22.0226 80.7433 22.3025 81.1193 22.3025 81.5789C22.3025 82.0386 22.0209 82.4145 21.6623 82.4145ZM21.6623 80.8925C21.4059 80.8925 21.1881 81.206 21.1881 81.5759C21.1881 81.9458 21.4059 82.2593 21.6623 82.2593C21.9187 82.2593 22.1349 81.9473 22.1349 81.5759C22.1349 81.2045 21.9271 80.8956 21.6623 80.8956V80.8925Z" fill="black"/>
<path d="M23.1288 83.0306C23.437 83.0306 23.6869 82.6906 23.6869 82.2711C23.6869 81.8516 23.437 81.5116 23.1288 81.5116C22.8206 81.5116 22.5708 81.8516 22.5708 82.2711C22.5708 82.6906 22.8206 83.0306 23.1288 83.0306Z" fill="url(#paint16_linear_412_414)"/>
<path d="M23.1294 83.1068C22.7758 83.1068 22.4893 82.7324 22.4893 82.2712C22.4893 81.8101 22.7758 81.4356 23.1294 81.4356C23.483 81.4356 23.7712 81.8101 23.7712 82.2712C23.7712 82.7324 23.483 83.1068 23.1294 83.1068ZM23.1294 81.5848C22.873 81.5848 22.6568 81.8983 22.6568 82.2682C22.6568 82.6381 22.873 82.9516 23.1294 82.9516C23.3858 82.9516 23.6037 82.6381 23.6037 82.2682C23.6037 81.8983 23.3875 81.5878 23.1294 81.5878V81.5848Z" fill="black"/>
<path d="M24.6293 83.7827C24.9375 83.7827 25.1874 83.4426 25.1874 83.0231C25.1874 82.6037 24.9375 82.2636 24.6293 82.2636C24.3211 82.2636 24.0713 82.6037 24.0713 83.0231C24.0713 83.4426 24.3211 83.7827 24.6293 83.7827Z" fill="url(#paint17_linear_412_414)"/>
<path d="M24.6284 83.8589C24.2765 83.8589 23.9883 83.4845 23.9883 83.0233C23.9883 82.5621 24.2765 82.1877 24.6284 82.1877C24.9803 82.1877 25.2703 82.5636 25.2703 83.0233C25.2703 83.4829 24.982 83.8589 24.6284 83.8589ZM24.6284 82.3368C24.372 82.3368 24.1559 82.6504 24.1559 83.0202C24.1559 83.3901 24.372 83.7036 24.6284 83.7036C24.8848 83.7036 25.1027 83.3916 25.1027 83.0202C25.1027 82.6489 24.8865 82.3399 24.6284 82.3399V82.3368Z" fill="black"/>
<path d="M26.228 84.5422C26.5362 84.5422 26.786 84.2021 26.786 83.7827C26.786 83.3632 26.5362 83.0232 26.228 83.0232C25.9198 83.0232 25.6699 83.3632 25.6699 83.7827C25.6699 84.2021 25.9198 84.5422 26.228 84.5422Z" fill="url(#paint18_linear_412_414)"/>
<path d="M26.2275 84.6184C25.874 84.6184 25.5874 84.244 25.5874 83.7828C25.5874 83.3216 25.874 82.9472 26.2275 82.9472C26.5811 82.9472 26.8694 83.3216 26.8694 83.7828C26.8694 84.244 26.5811 84.6184 26.2275 84.6184ZM26.2275 83.0964C25.9711 83.0964 25.755 83.4099 25.755 83.7798C25.755 84.1496 25.9711 84.4632 26.2275 84.4632C26.4839 84.4632 26.7018 84.1496 26.7018 83.7798C26.7018 83.4099 26.4856 83.0994 26.2275 83.0994V83.0964Z" fill="black"/>
<path d="M13.4736 77.186V78.9425L17.3095 80.8192V79.0916L13.4736 77.186Z" fill="black"/>
<path d="M30.5209 71.8486V72.8319C30.5209 72.8608 30.5209 72.8912 30.5209 72.9201C30.4254 74.3265 28.0759 75.4528 25.1902 75.4528C22.2442 75.4528 19.8579 74.2793 19.8579 72.8319V71.8486H20.2517C21.0427 70.8882 22.9581 70.2109 25.1953 70.2109C27.4325 70.2109 29.3496 70.8882 30.1405 71.8486H30.5209Z" fill="#FF7422"/>
<path d="M25.1867 75.6802C22.0547 75.6802 19.603 74.4276 19.603 72.8309V71.6133H20.1208C21.0258 70.6148 22.9931 69.9756 25.1867 69.9756C27.3803 69.9756 29.3494 70.6148 30.2543 71.6133H30.7721V72.8309C30.7721 72.8629 30.7721 72.8979 30.7721 72.9299C30.6632 74.4732 28.2115 75.6802 25.1867 75.6802ZM20.1058 72.076V72.837C20.1058 74.1338 22.4318 75.2297 25.1867 75.2297C27.8998 75.2297 30.1789 74.1886 30.266 72.9101C30.266 72.8888 30.266 72.8614 30.266 72.837V72.076H30.0029L29.9275 71.9847C29.1651 71.0593 27.258 70.4383 25.1834 70.4383C23.1088 70.4383 21.2034 71.0593 20.4409 71.9847L20.3655 72.076H20.1058Z" fill="black"/>
<path d="M25.1866 74.4679C28.1325 74.4679 30.5206 73.2945 30.5206 71.847C30.5206 70.3995 28.1325 69.226 25.1866 69.226C22.2407 69.226 19.8525 70.3995 19.8525 71.847C19.8525 73.2945 22.2407 74.4679 25.1866 74.4679Z" fill="#4C4AEF"/>
<path d="M25.1874 74.6979C22.0554 74.6979 19.6021 73.4453 19.6021 71.8487C19.6021 70.2521 22.0554 68.9994 25.1874 68.9994C28.3195 68.9994 30.7728 70.2505 30.7728 71.8487C30.7728 73.4468 28.3195 74.6979 25.1874 74.6979ZM25.1874 69.456C22.4325 69.456 20.1048 70.5519 20.1048 71.8487C20.1048 73.1455 22.4325 74.2413 25.1874 74.2413C27.9424 74.2413 30.2701 73.1455 30.2701 71.8487C30.2701 70.5519 27.9424 69.456 25.1874 69.456Z" fill="black"/>
<path d="M30.5213 72.8319V72.9202C30.5196 72.8913 30.5213 72.8608 30.5213 72.8319Z" fill="#E9A77F"/>
</g>
<defs>
<linearGradient id="paint0_linear_412_414" x1="98.4824" y1="35.6498" x2="8.93909" y2="92.588" gradientUnits="userSpaceOnUse">
<stop offset="0.49" stop-color="white"/>
<stop offset="1" stop-color="#E5BDA0"/>
</linearGradient>
<linearGradient id="paint1_linear_412_414" x1="45.2478" y1="35.1666" x2="62.6374" y2="35.1666" gradientUnits="userSpaceOnUse">
<stop offset="0.49" stop-color="white"/>
<stop offset="1" stop-color="#E5BDA0"/>
</linearGradient>
<linearGradient id="paint2_linear_412_414" x1="57.049" y1="24.5476" x2="53.3187" y2="43.7319" gradientUnits="userSpaceOnUse">
<stop offset="0.49" stop-color="white"/>
<stop offset="1" stop-color="#E5BDA0"/>
</linearGradient>
<linearGradient id="paint3_linear_412_414" x1="67.0915" y1="16.5472" x2="84.7979" y2="16.5472" gradientUnits="userSpaceOnUse">
<stop offset="0.49" stop-color="white"/>
<stop offset="1" stop-color="#E5BDA0"/>
</linearGradient>
<linearGradient id="paint4_linear_412_414" x1="79.2501" y1="6.01747" x2="75.1076" y2="25.3224" gradientUnits="userSpaceOnUse">
<stop offset="0.49" stop-color="white"/>
<stop offset="1" stop-color="#E5BDA0"/>
</linearGradient>
<linearGradient id="paint5_linear_412_414" x1="48.3497" y1="55.0896" x2="78.3664" y2="55.0896" gradientUnits="userSpaceOnUse">
<stop offset="0.49" stop-color="white"/>
<stop offset="1" stop-color="#E5BDA0"/>
</linearGradient>
<linearGradient id="paint6_linear_412_414" x1="48.3479" y1="53.0037" x2="78.3679" y2="53.0037" gradientUnits="userSpaceOnUse">
<stop offset="0.49" stop-color="white"/>
<stop offset="1" stop-color="#E5BDA0"/>
</linearGradient>
<linearGradient id="paint7_linear_412_414" x1="58.0052" y1="45.272" x2="74.9625" y2="45.272" gradientUnits="userSpaceOnUse">
<stop offset="0.49" stop-color="white"/>
<stop offset="1" stop-color="#E5BDA0"/>
</linearGradient>
<linearGradient id="paint8_linear_412_414" x1="67.2088" y1="36.4621" x2="66.8673" y2="55.0811" gradientUnits="userSpaceOnUse">
<stop offset="0.49" stop-color="white"/>
<stop offset="1" stop-color="#E5BDA0"/>
</linearGradient>
<linearGradient id="paint9_linear_412_414" x1="73.1382" y1="67.8282" x2="80.3173" y2="67.8282" gradientUnits="userSpaceOnUse">
<stop offset="0.49" stop-color="white"/>
<stop offset="1" stop-color="#E5BDA0"/>
</linearGradient>
<linearGradient id="paint10_linear_412_414" x1="82.0229" y1="63.6923" x2="89.2037" y2="63.6923" gradientUnits="userSpaceOnUse">
<stop offset="0.49" stop-color="white"/>
<stop offset="1" stop-color="#E5BDA0"/>
</linearGradient>
<linearGradient id="paint11_linear_412_414" x1="4.03027" y1="74.001" x2="5.14635" y2="74.001" gradientUnits="userSpaceOnUse">
<stop offset="0.49" stop-color="white"/>
<stop offset="1" stop-color="#E5BDA0"/>
</linearGradient>
<linearGradient id="paint12_linear_412_414" x1="5.49854" y1="74.6921" x2="6.61293" y2="74.6921" gradientUnits="userSpaceOnUse">
<stop offset="0.49" stop-color="white"/>
<stop offset="1" stop-color="#E5BDA0"/>
</linearGradient>
<linearGradient id="paint13_linear_412_414" x1="6.99756" y1="75.4441" x2="8.11196" y2="75.4441" gradientUnits="userSpaceOnUse">
<stop offset="0.49" stop-color="white"/>
<stop offset="1" stop-color="#E5BDA0"/>
</linearGradient>
<linearGradient id="paint14_linear_412_414" x1="8.59668" y1="76.2024" x2="9.71108" y2="76.2024" gradientUnits="userSpaceOnUse">
<stop offset="0.49" stop-color="white"/>
<stop offset="1" stop-color="#E5BDA0"/>
</linearGradient>
<linearGradient id="paint15_linear_412_414" x1="21.105" y1="81.5788" x2="22.2194" y2="81.5788" gradientUnits="userSpaceOnUse">
<stop offset="0.49" stop-color="white"/>
<stop offset="1" stop-color="#E5BDA0"/>
</linearGradient>
<linearGradient id="paint16_linear_412_414" x1="22.5725" y1="82.2711" x2="23.6869" y2="82.2711" gradientUnits="userSpaceOnUse">
<stop offset="0.49" stop-color="white"/>
<stop offset="1" stop-color="#E5BDA0"/>
</linearGradient>
<linearGradient id="paint17_linear_412_414" x1="24.073" y1="83.0231" x2="25.1874" y2="83.0231" gradientUnits="userSpaceOnUse">
<stop offset="0.49" stop-color="white"/>
<stop offset="1" stop-color="#E5BDA0"/>
</linearGradient>
<linearGradient id="paint18_linear_412_414" x1="25.6716" y1="83.7827" x2="26.786" y2="83.7827" gradientUnits="userSpaceOnUse">
<stop offset="0.49" stop-color="white"/>
<stop offset="1" stop-color="#E5BDA0"/>
</linearGradient>
<clipPath id="clip0_412_414">
<rect width="102" height="87.1918" fill="white" transform="translate(0 2.60602)"/>
</clipPath>
</defs>
</svg>
